<?xml version="1.0" encoding="UTF-8"?>
<!DOCTYPE svg PUBLIC "-//W3C//DTD SVG 1.1//EN" "http://www.w3.org/Graphics/SVG/1.1/DTD/svg11.dtd">
<svg xmlns="http://www.w3.org/2000/svg" version="1.1" width="350px" height="350px" style="shape-rendering:geometricPrecision; text-rendering:geometricPrecision; image-rendering:optimizeQuality; fill-rule:evenodd; clip-rule:evenodd" xmlns:xlink="http://www.w3.org/1999/xlink">
<g><path style="opacity:1" fill="#ffffff" d="M 119.5,8.5 C 124.214,8.17338 128.88,8.50671 133.5,9.5C 172.407,106.641 210.74,203.975 248.5,301.5C 244.116,301.826 239.783,301.492 235.5,300.5C 199.164,209.157 162.831,117.824 126.5,26.5C 89.8529,117.268 53.6863,208.268 18,299.5C 15.7875,300.76 13.2875,301.426 10.5,301.5C 8.16667,301.333 5.83333,301.167 3.5,301C 42.2678,203.528 80.9345,106.028 119.5,8.5 Z"/></g>
<g><path style="opacity:1" fill="#ffffff" d="M 147.5,8.5 C 151.846,8.33432 156.179,8.50098 160.5,9C 199.167,106.333 237.833,203.667 276.5,301C 274.167,301.167 271.833,301.333 269.5,301.5C 266.713,301.426 264.213,300.76 262,299.5C 223.533,202.595 185.366,105.595 147.5,8.5 Z"/></g>
<g><path style="opacity:1" fill="#ffffff" d="M 174.5,9.5 C 176.641,8.8367 178.975,8.50337 181.5,8.5C 184.287,8.57383 186.787,9.2405 189,10.5C 227.47,107.417 265.637,204.417 303.5,301.5C 298.901,301.8 294.401,301.467 290,300.5C 251.767,203.281 213.267,106.281 174.5,9.5 Z"/></g>
<g><path style="opacity:1" fill="#ffffff" d="M 202.5,8.5 C 207.099,8.20001 211.599,8.53335 216,9.5C 254.309,106.763 292.809,203.93 331.5,301C 326.798,301.828 322.131,301.662 317.5,300.5C 278.765,203.289 240.432,105.956 202.5,8.5 Z"/></g>
<g><path style="opacity:1" fill="#ffffff" d="M 127.5,56.5 C 131.762,62.1192 133.929,68.4526 134,75.5C 104.056,150.388 74.3896,225.388 45,300.5C 40.5986,301.467 36.0986,301.8 31.5,301.5C 63.2163,219.732 95.2163,138.066 127.5,56.5 Z"/></g>
<g><path style="opacity:1" fill="#ffffff" d="M 141.5,90.5 C 143.814,93.7954 145.648,97.462 147,101.5C 148.15,103.754 148.484,106.087 148,108.5C 122.931,172.54 97.7646,236.54 72.5,300.5C 67.8687,301.662 63.202,301.828 58.5,301C 86.4625,230.945 114.129,160.778 141.5,90.5 Z"/></g>
<g><path style="opacity:1" fill="#ffffff" d="M 154.5,125.5 C 155.497,125.47 156.164,125.97 156.5,127C 158.402,132.206 160.402,137.373 162.5,142.5C 141.5,195.167 120.5,247.833 99.5,300.5C 95.2172,301.492 90.8839,301.826 86.5,301.5C 109.167,242.833 131.833,184.167 154.5,125.5 Z"/></g>
<g><path style="opacity:1" fill="#ffffff" d="M 145.5,202.5 C 160.182,202.167 174.848,202.501 189.5,203.5C 191.073,207.392 192.74,211.225 194.5,215C 176.5,215.667 158.5,215.667 140.5,215C 142.586,210.996 144.252,206.829 145.5,202.5 Z"/></g>
<g><path style="opacity:1" fill="#ffffff" d="M 204.5,240.5 C 179.994,240.831 155.661,240.498 131.5,239.5C 132.631,236.111 133.964,232.778 135.5,229.5C 156.826,228.334 178.159,228.167 199.5,229C 201.31,232.786 202.977,236.619 204.5,240.5 Z"/></g>
<g><path style="opacity:1" fill="#ffffff" d="M 131.5,239.5 C 155.661,240.498 179.994,240.831 204.5,240.5C 179.997,241.829 155.33,241.829 130.5,240.5C 130.624,239.893 130.957,239.56 131.5,239.5 Z"/></g>
</svg>
